<svg xmlns="http://www.w3.org/2000/svg" xmlns:xlink="http://www.w3.org/1999/xlink" id="Capa_1" x="0px" y="0px" viewBox="0 0 512 512" style="enable-background:new 0 0 512 512;" xml:space="preserve">
<style type="text/css">
	.st0{fill:#C3151C;}
</style>
<g>
	<g>
		<path class="st0" d="M426.3,380.6c-21.1,0-38.3-17.2-38.3-38.3s17.2-38.3,38.3-38.3c21.1,0,38.3,17.2,38.3,38.3    S447.4,380.6,426.3,380.6z M426.3,324c-10.1,0-18.3,8.2-18.3,18.3s8.2,18.3,18.3,18.3c10.1,0,18.3-8.2,18.3-18.3    S436.3,324,426.3,324z"></path>
	</g>
	<g>
		<path class="st0" d="M181.1,171.1v-70.5h167.7c31.4,0,57,25.6,57,57c0,31.4-25.6,57-57,57h-68.9c-5.5,0-10,4.5-10,10s4.5,10,10,10    h68.9c42.5,0,77-34.5,77-77c0-42.4-34.5-77-77-77H181.1V10c0-5.5-4.5-10-10-10H10C4.5,0,0,4.5,0,10v161.1c0,5.5,4.5,10,10,10    h161.1C176.6,181.1,181.1,176.6,181.1,171.1L181.1,171.1z M71.8,20h37.5v37.9l-13.5-8.3c-3.2-2-7.3-2-10.5,0l-13.5,8.3L71.8,20    L71.8,20z M161.1,161.1H20V20h31.8v55.8c0,3.6,2,7,5.1,8.7c3.2,1.8,7,1.7,10.1-0.2l23.5-14.5l23.5,14.5c1.6,1,3.4,1.5,5.2,1.5    c1.7,0,3.4-0.4,4.9-1.3c3.2-1.8,5.1-5.1,5.1-8.7V20h31.8L161.1,161.1L161.1,161.1z"></path>
		<path class="st0" d="M470.7,433.7c20.5-26.9,39.4-52.7,39-91.5c0-46-37.5-83.4-83.4-83.4c-46,0-83.4,37.4-83.5,83.4    c-0.4,38.8,18.5,64.6,39,91.4c-20.2,5.6-34,15-39.1,26.3H93.3c-17.1,0-30.9-13.9-30.9-30.9c0-17.1,13.9-30.9,30.9-30.9H229    c28.1,0,50.9-22.8,50.9-50.9c0-28.1-22.8-50.9-50.9-50.9H102.2c-17,0-30.9-13.9-30.9-30.9s13.9-30.9,30.9-30.9h87.8    c5.5,0,10-4.5,10-10s-4.5-10-10-10h-87.8c-28.1,0-50.9,22.8-50.9,50.9s22.8,50.9,50.9,50.9H229c17.1,0,30.9,13.9,30.9,30.9    c0,17-13.9,30.9-30.9,30.9H93.3c-28.1,0-50.9,22.8-50.9,50.9c0,28.1,22.8,50.9,50.9,50.9h249.3c3.9,8.7,12.8,16.2,26.1,21.8    c15.5,6.5,35.9,10.1,57.5,10.1c21.5,0,41.9-3.6,57.4-10.2c18.2-7.7,28.3-19,28.3-31.8C512,454.2,496.6,440.9,470.7,433.7    L470.7,433.7z M362.8,342.4c0,0,0-0.1,0-0.1c0-35,28.5-63.5,63.5-63.5c35,0,63.4,28.5,63.4,63.5c0,0,0,0.1,0,0.1    c0.3,32.9-16.7,55.3-36.4,81.2c-2.1,2.7-22.1,26.6-22.1,26.6c-1.7,2-3.5,3.2-4.9,3.2c-2-0.1-3.9-2-5-3.2c0,0-20-23.9-22.1-26.6    C379.5,397.7,362.4,375.4,362.8,342.4L362.8,342.4z M426.3,492c-42.6,0-65.8-14.5-65.8-22c0-5.1,11.2-14.2,35.1-19l10.6,12.3    c7.2,8.3,14.9,10.1,20,10.1h0.1c0,0,0,0,0.1,0c5.2,0,12.8-1.8,20-10.1l10.6-12.3c23.9,4.8,35.1,14,35.1,19    C492,477.5,468.8,492,426.3,492z"></path>
		<path class="st0" d="M225,224.6c0,5.5,4.5,10,10,10h0c5.5,0,10-4.5,10-10s-4.5-10-10-10S225,219,225,224.6L225,224.6z"></path>
	</g>
</g>
</svg>